<svg xmlns="http://www.w3.org/2000/svg" viewBox="980 980 950 950">
    <path fill="white" d="M1419.91 1009.03C1449.67 1007.7 1479.48 1009.39 1508.9 1014.08C1622.9 1032.6 1724.73 1096.01 1791.64 1190.15C1863.54 1290.98 1883.66 1402.67 1863.57 1522.79L1557.39 1522.79C1525.31 1637.59 1496.59 1753.86 1464.4 1868.61C1463.87 1870.51 1462.26 1870.44 1460.47 1871.05C1427.88 1871.93 1401.01 1870.93 1368.49 1865.49C1255.49 1846.49 1154.69 1783.3 1088.36 1689.87C1016.85 1589.25 996.326 1477.44 1016.39 1357.21L1327 1357.21C1356.95 1245.44 1384.37 1132.38 1414.07 1020.51C1415.74 1014.22 1415.53 1011.51 1419.91 1009.03Z"/>
    <path fill="black" d="M1445.5 1046.11C1454.53 1046.17 1463.56 1046.59 1472.55 1047.37C1577.01 1055.83 1673.73 1105.76 1741.13 1186.02C1814.9 1273.47 1841.08 1373.65 1831.49 1486.06L1567.05 1486.06C1582.43 1434.14 1597.34 1373.02 1611.46 1320.16L1478.56 1320.18C1464.93 1365.99 1452.16 1418.29 1439.69 1464.82L1362.53 1752.95L1343.89 1822.19C1263.69 1802.06 1191.88 1757.15 1138.66 1693.86C1064.88 1606.26 1039.03 1506.36 1048.43 1393.94L1317.48 1393.94C1304.67 1447.7 1288.23 1506.12 1274.14 1560.05L1312.74 1559.84L1445.5 1046.11Z"/>
</svg>
