<?xml version="1.0" encoding="utf-8" ?><svg xmlns="http://www.w3.org/2000/svg" xmlns:xlink="http://www.w3.org/1999/xlink" width="2880" height="2880" viewBox="0 0 2880 2880"><path fill="black" d="M0 0L2880 0L2880 2880L0 2880L0 0Z"/><path fill="white" d="M1405.44 921.602C1429.34 920.899 1453.24 922.497 1476.83 926.376C1565.75 941.654 1644.95 991.654 1696.98 1065.36C1752.34 1143.68 1769.16 1232.51 1752.87 1326.14L1511.88 1326.14L1458.4 1525.83C1452.38 1548.32 1445.57 1575.4 1438.8 1597.93C1438.23 1599.85 1437.16 1599.58 1434.73 1600.35C1408.77 1601.08 1385.93 1599.96 1360.28 1595.45C1271.69 1579.73 1192.96 1529.48 1141.4 1455.74C1086.69 1377.67 1070.09 1289.03 1086.24 1195.99L1330.68 1195.99L1377.61 1014.26C1385.02 985.436 1392.28 955.172 1400.59 926.617C1401.85 922.289 1401.77 923.284 1405.44 921.602Z"/><path fill="black" d="M1423.91 950.814C1429.34 951.026 1434.77 951.326 1440.18 951.712C1523.41 957.082 1600.91 995.921 1655.03 1059.38C1714.96 1129.42 1734.5 1207.06 1727.82 1297.2L1519.68 1297.2L1554.5 1166.8L1449.73 1166.82L1358.63 1507.16L1343.88 1562.04C1186.69 1518.95 1098.96 1385.59 1111.3 1224.9L1323.19 1224.9L1288.84 1355.63L1319.45 1355.5C1352.53 1221.36 1389.51 1084.86 1423.91 950.814Z"/><path fill="white" d="M1055.87 1710.41C1057.95 1710.24 1060.04 1710.11 1062.13 1710C1104.09 1707.62 1130.97 1718.01 1162.12 1745.82L1132.28 1774.83C1104.02 1750.21 1063.14 1744.24 1030.02 1763.52C971.648 1797.5 982.099 1902.25 1053.42 1914.12C1081.82 1918.85 1101.5 1915.29 1125.74 1899.54C1129.45 1896.36 1130.46 1895.17 1135.07 1893.25C1143.26 1899.37 1157.9 1915.23 1165.63 1923.14C1145.13 1941.6 1127.32 1951.37 1099.05 1956.48C977.271 1978.49 907.092 1855.8 972.526 1756.63C990.844 1728.86 1022.67 1715.51 1055.87 1710.41Z"/><path fill="white" d="M1556.7 1784.74L1598.22 1784.74C1598.38 1816.85 1595.18 1859.47 1601.57 1891.23C1604.7 1906.79 1622.05 1918.39 1638.57 1917.8C1685.86 1916.13 1683 1868.62 1682.1 1834.01C1681.75 1817.79 1681.93 1800.89 1681.84 1784.74L1722.98 1784.74L1723.08 1844.3L1723.31 1953.11L1686.43 1953.11C1685.26 1945.76 1684.39 1938 1683.43 1930.59C1644.04 1967.02 1586.32 1967.04 1563.45 1911.62C1554.77 1890.61 1556.54 1864.71 1556.56 1842.22L1556.7 1784.74Z"/><path fill="white" d="M1464.53 1780.71C1496.32 1777.44 1514.25 1784.22 1538.42 1804.78L1512.1 1832.53C1479.62 1807.99 1438.25 1818.85 1430.88 1858.68C1421.1 1911.63 1474.49 1934.97 1514.73 1904.45L1525.23 1914.61L1542.74 1931.67C1508.33 1962.19 1463.12 1967.72 1423.33 1942.72C1383.01 1917.39 1377.95 1850.39 1404.44 1813.72C1419.56 1792.78 1439.89 1784.49 1464.53 1780.71Z"/><path fill="white" d="M1865.24 1738.83C1870.89 1737.99 1871.84 1737.61 1877.32 1738.62C1879.92 1744.71 1878.72 1776.35 1878.62 1785.06L1925.06 1785.06L1925.08 1821.03L1878.34 1821.03C1878.59 1844.39 1875.81 1878.93 1879.92 1901.7C1883.48 1921.46 1904.94 1918.43 1920.42 1912.56C1924.12 1924.54 1929.71 1933.96 1930.4 1946.05C1928.09 1950.49 1928.62 1949.11 1922.26 1951.37C1913.88 1953.62 1905.26 1954.88 1896.58 1955.12C1822.29 1957.16 1836.72 1871.5 1836.88 1821.03L1805.62 1821.03L1805.58 1785.06L1836.85 1785.06L1836.8 1741.69L1865.24 1738.83Z"/><path fill="white" d="M1325.45 1780.75C1349.02 1779.68 1360.37 1781.85 1379.84 1796L1361.04 1832.23C1337.03 1816.05 1296.09 1817.38 1290.89 1850.62C1286.36 1879.59 1289.01 1918.8 1289.16 1949.21L1288.94 1951.09C1283.93 1954.81 1255.46 1953.19 1247.43 1953.11L1247.26 1784.74L1285.87 1784.74L1288.88 1803.28C1301.66 1788.17 1306.53 1784.51 1325.45 1780.75Z"/><path fill="white" d="M1742.49 1784.27L1784.23 1784.21L1784.43 1953.09L1742.7 1953.11L1742.49 1784.27Z"/><path fill="white" d="M1183.19 1784.21L1224.87 1784.21L1224.96 1953.11L1183.59 1953.11L1183.19 1784.21Z"/><path fill="white" d="M1199.36 1713.21C1212.7 1710.65 1225.59 1719.36 1228.17 1732.69C1230.76 1746.02 1222.07 1758.93 1208.75 1761.54C1195.39 1764.16 1182.44 1755.44 1179.84 1742.08C1177.25 1728.71 1185.99 1715.78 1199.36 1713.21Z"/><path fill="white" d="M1758.63 1713.21C1767.38 1711.53 1776.35 1714.71 1782.09 1721.52C1787.83 1728.32 1789.45 1737.7 1786.32 1746.04C1783.19 1754.38 1775.8 1760.37 1766.99 1761.72C1753.73 1763.75 1741.29 1754.78 1739.01 1741.57C1736.74 1728.35 1745.46 1715.74 1758.63 1713.21Z"/></svg>
